<?xml version="1.0" standalone="no"?>
<!DOCTYPE svg PUBLIC "-//W3C//DTD SVG 20010904//EN"
 "http://www.w3.org/TR/2001/REC-SVG-20010904/DTD/svg10.dtd">
<svg version="1.0" xmlns="http://www.w3.org/2000/svg"
 width="479.000000pt" height="452.000000pt" viewBox="0 0 479.000000 452.000000"
 preserveAspectRatio="xMidYMid meet">

<g transform="translate(0.000000,452.000000) scale(0.100000,-0.100000)"
fill="#400f71" stroke="none">
<path d="M2225 4063 c-436 -22 -889 -243 -1192 -583 -233 -260 -382 -570 -440
-915 -19 -111 -21 -462 -4 -550 42 -209 83 -339 153 -485 119 -246 267 -437
471 -607 82 -69 245 -183 261 -183 3 0 6 355 6 788 0 738 1 793 18 844 37 111
129 189 245 208 83 13 673 12 757 -1 79 -12 135 -43 188 -104 104 -119 95
-280 -22 -397 -83 -83 -111 -89 -434 -86 l-277 3 -3 233 -2 232 -100 0 -100 0
0 -334 0 -333 343 -7 c469 -9 532 1 672 107 85 64 147 151 176 249 18 58 21
87 17 167 -13 236 -155 406 -393 466 -88 22 -804 22 -890 0 -191 -50 -316
-169 -377 -359 -19 -57 -20 -98 -24 -661 -2 -330 -8 -601 -13 -603 -13 -4
-146 153 -213 253 -188 281 -268 549 -268 899 1 267 54 483 178 719 146 279
390 522 665 663 245 126 449 174 732 174 265 0 420 -33 669 -142 258 -113 519
-345 674 -600 148 -242 212 -438 233 -703 37 -486 -125 -912 -477 -1257 -315
-309 -741 -469 -1179 -444 -120 7 -293 34 -312 49 -20 15 -18 530 2 547 10 9
67 10 227 5 245 -8 433 5 524 34 179 59 295 124 406 229 145 137 223 266 289
482 19 62 19 386 0 455 -62 231 -185 414 -371 554 -123 92 -234 141 -400 175
-100 21 -432 22 -508 2 -132 -35 -257 -135 -322 -257 -16 -31 -30 -60 -30 -63
0 -3 51 -6 114 -6 l113 0 30 34 c66 78 154 106 333 106 194 0 314 -26 453 -97
68 -35 109 -66 176 -132 98 -96 153 -184 198 -316 25 -73 27 -94 27 -230 1
-167 -8 -202 -86 -359 -31 -62 -60 -98 -136 -175 -104 -102 -168 -142 -322
-198 l-75 -27 -427 -4 -427 -4 -3 -395 c-2 -217 -1 -422 2 -455 l5 -61 80 -24
c224 -68 545 -92 780 -58 107 15 121 18 259 60 542 160 1001 606 1170 1135 20
63 41 129 46 145 29 95 44 228 44 415 0 202 -10 300 -46 430 -127 471 -383
826 -783 1086 -188 122 -429 213 -655 249 -93 14 -314 24 -425 18z"/>
</g>
</svg>
